<svg xmlns="http://www.w3.org/2000/svg" viewBox="0 0 800 800" stroke-linejoin="round"><path d="M448 696C448 691 448 686 446 680 445 676 445 672 446 668 447 666 448 664 449 663 450 662 451 662 452 662 453 664 455 665 455 667 456 671 457 675 459 679 459 680 459 681 459 681 460 685 460 689 461 693 462 695 462 697 462 700 464 705 465 711 467 716 468 721 469 721 468 727 465 728 462 729 459 730 456 729 457 726 455 724 452 725 451 724 450 722 450 721 449 721 449 720 448 720 447 719 447 718 444 715 441 711 438 708 436 704 434 700 433 696 432 691 431 687 431 682 431 679 430 676 430 673 429 667 429 662 429 657 430 656 430 655 430 654 429 653 429 651 426 651 425 651 423 650 422 648 419 645 416 641 412 639 410 637 409 635 410 633 411 630 412 627 413 624 414 624 415 624 416 624 419 623 421 624 423 626 423 627 424 628 424 628 426 629 427 630 428 632 429 634 431 635 432 636 434 638 437 638 439 639 443 639 447 639 451 639 456 638 462 637 466 634 468 632 470 631 472 629 470 628 469 627 468 627 468 625 468 624 468 622 468 618 470 615 474 614 477 613 480 612 483 611 485 610 487 609 489 609 492 608 496 607 499 606 502 605 505 604 507 604 509 604 510 603 511 603 512 603 513 603 514 603 514 602 515 603 515 602 519 600 523 600 527 599 529 599 532 598 535 597 540 596 545 594 550 593 552 592 554 592 556 591 560 588 564 586 568 583 570 582 570 579 570 577 571 574 572 572 574 570 575 569 576 568 577 567 583 567 585 571 584 576 584 578 583 581 582 584 581 585 579 587 578 588 575 591 573 594 569 595 567 597 564 598 561 600 559 601 556 603 553 604 550 605 547 606 544 607 543 607 541 608 540 608 539 609 538 609 537 609 535 608 533 609 531 610 529 611 527 611 524 612 521 613 518 614 515 615 514 615 514 616 513 616 515 618 517 620 518 622 518 624 518 625 519 626 520 630 520 634 520 638 519 640 519 643 519 645 519 650 518 654 518 658 517 663 517 667 517 672 517 675 517 678 516 681 514 686 511 690 509 695 508 697 507 698 505 698 504 698 503 699 501 699 501 702 501 705 501 707 501 708 500 709 500 710 499 714 498 719 498 723 497 726 496 728 495 731 494 734 493 738 492 741 491 744 491 747 490 751 489 753 488 754 486 754 484 754 483 755 481 756 480 756 480 757 479 757 477 753 476 750 478 747 479 744 479 742 479 739 477 741 476 742 474 744 471 743 470 741 469 739 469 737 470 735 469 733 469 728 470 723 471 718 471 716 472 713 473 711 475 708 475 708 479 709 479 709 480 709 480 709 480 710 480 710 481 710 484 713 483 716 483 720 483 723 482 726 482 729 482 729 482 730 482 731 483 730 483 730 483 730 484 725 486 720 486 716 487 712 487 708 488 704 488 701 488 698 489 695 489 692 489 688 489 684 489 681 489 678 490 675 491 674 492 672 493 671 494 669 497 668 499 670 500 672 501 674 501 676 501 678 502 680 502 683 504 682 504 681 504 679 504 676 504 673 504 670 504 667 504 664 505 661 505 659 505 656 506 653 506 652 506 651 506 650 506 649 507 648 507 648 506 644 507 641 507 638 507 636 507 634 506 633 505 629 505 625 506 622 506 620 507 619 508 617 504 618 499 618 495 620 494 621 493 622 492 622 488 623 486 625 485 628 484 631 482 633 481 635 479 637 476 639 474 641 474 642 473 642 473 643 470 645 466 646 464 648 460 649 457 652 452 652 451 652 450 652 449 652 448 652 447 653 445 653 442 652 442 653 442 656 442 656 442 657 442 658 443 660 442 661 442 663 442 666 442 670 443 673 443 679 445 685 446 692 446 693 447 695 447 696 448 696 448 696 448 696ZM375 573C379 576 380 580 379 584 378 588 380 592 383 595 385 596 387 598 388 600 389 600 389 601 390 601 392 601 393 602 395 603 396 604 398 604 400 604 403 604 406 604 409 604 410 604 411 606 412 606 413 609 412 613 409 614 406 615 403 616 401 617 397 618 393 617 389 616 388 616 386 616 385 615 380 613 373 607 370 602 369 602 369 601 368 601 366 599 365 596 365 594 364 589 365 585 368 581 370 578 372 576 374 573 374 573 374 573 375 573ZM428 615C427 611 429 608 431 604 431 604 433 603 434 603 438 603 442 602 446 601 450 599 453 597 456 594 457 593 459 591 462 592 466 592 467 594 466 597 465 602 462 604 458 606 453 609 448 612 442 614 439 616 435 616 431 616 430 616 429 616 428 615ZM417 599C417 599 417 599 417 599 415 601 413 601 411 601 409 601 408 600 408 599 408 598 407 596 407 595 407 592 407 590 407 587 406 585 406 582 406 580 404 578 401 576 398 576 395 575 393 573 390 572 386 570 382 568 378 567 374 565 372 561 372 557 372 555 373 554 373 553 374 551 375 550 376 548 378 548 379 548 381 550 384 552 387 554 391 556 393 558 395 558 397 559 399 560 402 561 404 562 405 562 405 562 406 562 408 564 411 566 414 566 416 566 417 567 418 568 420 569 422 568 423 567 425 565 426 564 428 562 430 559 432 557 434 554 437 551 440 549 443 546 444 545 446 545 447 545 450 544 452 544 454 543 457 542 458 543 459 545 460 546 460 547 461 548 461 548 461 549 461 549 458 552 454 554 450 555 445 557 442 561 440 565 439 566 438 567 437 568 436 569 434 570 435 572 433 572 432 574 431 575 429 578 426 580 422 581 421 581 420 581 419 582 420 588 420 593 417 599 417 599 417 599 417 599L417 599ZM654 413C654 413 654 414 655 414 657 419 660 423 663 427 668 433 669 439 670 446 671 449 671 452 672 455 673 459 674 462 675 466 675 466 675 467 675 467 676 475 677 482 678 488 678 491 679 494 679 497 680 501 680 504 680 508 680 515 681 522 682 530 683 534 683 538 682 543 681 547 681 551 681 556 681 556 681 557 681 557 679 560 680 563 681 567 681 570 682 573 681 577 681 578 681 580 679 581 677 583 675 584 671 584 671 584 670 585 669 585 668 585 667 585 666 585 666 582 665 579 665 575 663 568 664 560 665 553 666 549 666 545 666 540 666 538 666 536 666 535 664 527 664 519 664 512 663 506 662 501 661 495 661 491 660 488 659 484 659 480 659 477 658 474 658 472 657 469 657 467 656 462 655 457 654 452 653 449 652 445 651 441 650 438 647 435 646 432 644 430 643 427 641 425 640 423 639 421 639 419 639 418 639 417 639 416 637 416 635 417 633 417 628 418 623 418 618 419 616 419 615 420 613 420 611 421 610 420 610 418 610 416 611 414 611 413 611 412 612 412 612 412 617 408 621 404 627 405 631 405 634 405 638 404 639 404 640 404 641 403 647 402 652 401 658 400 659 400 660 399 661 399 663 398 665 398 667 397 669 397 670 396 671 396 672 395 673 395 673 395 677 395 680 391 683 390 686 388 689 385 691 382 694 379 697 376 700 373 700 372 700 372 701 371 702 369 703 367 704 366 707 363 709 360 711 356 711 355 713 354 714 353 716 350 718 346 721 344 723 339 729 336 732 331 733 330 734 329 735 328 736 326 736 324 734 323 732 321 730 318 727 318 726 318 725 317 724 317 724 317 723 316 722 316 719 316 716 316 713 316 713 316 712 316 712 316 708 317 704 319 699 320 699 320 698 321 698 321 694 322 691 324 688 326 688 326 688 326 688 326 685 327 683 329 681 330 680 331 678 332 677 334 676 336 673 337 670 339 667 340 665 341 662 343 661 344 660 345 659 345 656 347 654 348 651 350 648 351 644 352 642 354 638 357 633 359 629 362 625 366 619 369 613 371 611 372 609 372 606 372 605 372 603 372 602 371 602 365 605 362 609 359 611 358 613 357 616 358 618 359 619 358 621 357 624 355 627 352 631 350 631 350 632 349 633 349 635 347 638 346 641 344 644 342 648 340 651 338 652 338 652 338 653 337 655 336 657 334 659 333 662 332 665 330 668 329 669 328 670 327 671 326 675 324 678 321 682 319 683 318 684 317 685 317 686 316 688 315 689 314 691 314 692 313 694 312 696 310 699 309 702 309 703 309 703 308 704 308 707 307 709 306 712 304 712 304 713 304 713 304 715 305 717 303 719 303 720 303 722 303 723 303 725 303 728 302 730 302 732 302 734 302 736 304 737 305 739 305 740 305 743 306 747 307 749 311 749 312 750 312 750 313 753 316 753 319 751 323 750 326 748 327 747 329 744 332 741 335 739 338 737 340 735 342 733 343 731 345 730 347 729 349 729 351 728 352 727 353 726 353 725 355 724 356 723 357 722 359 721 361 720 362 719 364 718 366 716 369 713 373 711 376 711 377 710 377 710 378 706 382 702 386 699 390 699 390 699 391 698 391 696 392 694 395 692 396 691 397 690 398 688 399 686 400 684 401 682 402 682 402 682 403 682 403 677 403 674 406 671 407 669 407 668 409 666 409 663 411 658 411 654 413ZM346 440C346 441 347 441 347 441 350 442 351 443 350 446 350 449 350 452 350 455 349 458 349 460 349 463 348 465 347 466 348 469 349 474 350 479 350 484 351 487 350 490 351 493 351 497 351 500 352 504 353 504 353 505 353 505 353 508 353 511 353 513 353 513 353 514 353 514 356 516 354 519 354 521 354 525 354 528 356 531 358 534 357 537 354 538 352 539 351 539 350 541 349 543 344 543 343 541 342 540 341 539 341 537 341 533 341 530 340 526 340 523 340 519 340 516 339 512 340 508 339 504 339 502 339 499 338 496 338 496 338 496 338 495 340 493 338 491 338 489 338 488 338 488 338 487 338 485 338 484 337 483 336 478 335 473 337 468 337 467 337 465 337 463 337 457 339 451 340 445 341 443 343 442 346 440ZM428 444C428 447 428 449 426 451 426 452 426 453 426 454 425 456 425 458 425 460 424 461 424 462 423 463 421 465 420 466 418 468 415 471 412 474 409 475 407 475 406 476 405 477 404 478 403 478 401 478 398 479 396 479 393 479 391 478 389 478 387 480 386 481 385 480 383 480 380 478 377 475 374 473 370 470 369 465 368 461 367 459 365 457 364 455 363 454 363 454 363 453 362 450 362 446 361 442 360 437 363 433 363 429 363 428 363 428 363 428 365 424 368 421 370 418 371 417 374 416 374 414 374 413 375 413 376 412 379 411 381 409 384 407 384 407 385 406 386 406 390 406 393 406 397 405 398 405 400 405 402 405 404 405 406 406 407 407 410 409 413 411 415 413 417 416 419 418 420 421 422 424 423 426 425 429 427 430 427 433 427 435 428 438 428 441 428 444ZM553 403C557 403 560 405 564 407 564 408 565 408 566 409 569 409 570 411 571 413 573 415 574 417 575 419 578 422 579 426 581 430 583 432 583 434 582 437 582 438 582 439 582 441 582 447 581 453 577 458 576 460 574 461 572 462 569 464 567 465 564 466 562 467 560 468 558 469 556 470 554 470 552 470L552 470C551 470 550 470 550 470L550 470C549 470 549 470 549 470 549 470 549 470 548 470L548 470C548 470 547 470 547 470 546 469 545 468 545 467L544 466C544 466 543 466 543 466 542 466 540 467 539 467L539 467C535 467 532 465 529 463 525 460 523 455 522 451 520 444 519 438 520 431 520 430 520 429 521 428 524 423 526 418 531 414 532 413 535 412 536 410 538 408 541 408 543 406 544 405 547 405 549 404 550 404 552 403 553 403L553 403ZM375 443C375 445 376 447 376 449 377 450 378 452 378 453 379 456 380 459 383 461 384 461 384 462 384 463 386 465 387 467 390 468 394 468 398 468 401 466 402 466 402 466 403 466 405 466 407 464 409 463 410 463 410 461 410 461 411 458 412 455 412 452 412 451 412 449 412 448 412 446 412 445 412 443 413 441 412 439 410 437 408 435 407 433 406 431 404 427 402 425 399 423 398 423 397 422 396 421 395 421 394 420 392 421 389 421 387 422 384 422 382 422 381 423 380 424 379 426 378 428 376 430 376 431 376 431 376 432 375 434 375 436 374 438 374 439 374 439 374 440 375 441 375 442 375 443ZM548 418C546 418 545 419 544 420 543 420 542 421 541 421 540 422 539 423 538 423 534 428 533 433 534 438 534 440 535 442 535 443 535 443 535 443 535 443 535 444 535 444 535 444 534 447 535 449 537 451 539 453 540 456 543 456L543 456C543 456 543 456 544 456 544 456 544 456 544 456L544 456C544 456 544 456 544 456 547 457 550 457 553 458 554 458 554 458 554 458L554 458C556 458 557 458 558 458 558 458 559 457 559 457 559 456 560 456 561 456 563 455 565 453 565 451 565 450 565 449 566 448 566 447 566 447 566 446 566 445 565 444 566 443 566 438 563 434 561 430 558 427 555 424 552 421 550 419 549 418 548 418L548 418ZM399 439C398 442 399 444 402 445 401 446 401 447 401 449 398 449 396 451 394 453 393 454 392 455 390 454 388 454 387 452 387 450 387 450 387 450 387 449 386 449 384 449 383 448 382 448 382 447 382 446 381 444 381 442 383 440 384 438 385 437 387 436 388 435 389 435 391 434 394 434 396 436 397 438 397 439 398 439 399 439ZM547 432C547 432 547 432 547 432 551 432 554 433 556 435 557 435 558 435 559 436 559 438 558 441 557 443 556 445 556 446 556 448 555 450 555 451 554 451L554 451C553 451 553 451 552 450 551 450 550 450 549 450L549 450C548 450 547 450 547 450 546 451 546 451 545 451L545 451C544 451 543 450 542 450 541 450 541 449 541 447 541 445 541 442 541 440 541 437 541 436 543 434 544 434 545 433 545 433 546 432 546 432 547 432L547 432ZM491 340C489 339 489 337 490 336 491 334 491 333 492 332 495 328 498 324 502 321 505 316 509 312 513 308 515 306 518 303 522 302 522 302 523 301 524 301 529 297 534 295 540 293 541 293 541 292 542 292 547 289 551 286 556 283 559 282 563 280 567 279 571 278 575 276 580 274 585 272 590 270 595 270 596 270 597 269 598 269 602 268 606 267 610 265 610 265 611 265 612 265 613 264 614 264 615 264 619 265 623 264 628 263 634 262 639 263 644 266 647 267 649 269 652 270 653 271 654 272 654 273 656 274 657 276 658 278 659 279 660 280 659 281 659 283 658 286 658 289 658 290 658 291 657 291 652 295 646 299 641 304 640 305 638 306 637 307 633 310 629 313 625 315 622 317 619 319 617 321 615 323 613 325 611 326 609 327 606 328 604 329 597 332 590 336 584 340 580 342 576 344 573 347 568 350 563 353 557 356 554 358 550 360 546 361 545 362 543 362 542 362 540 362 539 363 537 364 537 364 536 364 536 365 534 366 532 366 530 365 529 363 527 362 526 361 525 360 524 360 523 360 516 356 509 354 501 354 499 353 498 353 496 354 496 354 496 354 495 354 492 352 489 353 486 355 482 356 477 357 472 357 470 357 466 356 464 354 460 352 455 351 450 352 449 352 448 352 448 351 446 350 444 350 441 350 437 351 433 351 429 351 427 351 425 351 423 351 421 351 419 351 416 351 411 351 406 353 401 357 401 357 400 358 400 358 397 359 395 362 393 365 390 369 387 372 383 373 381 374 379 375 377 376 373 378 369 380 364 379 361 378 359 377 356 377 355 376 354 376 353 375 351 374 349 372 347 371 346 370 345 370 344 369 342 366 339 363 336 361 333 360 331 357 329 355 328 354 327 353 325 353 325 353 325 353 324 353 323 351 321 350 319 349 318 349 317 348 316 347 314 345 312 343 309 343 308 343 307 342 306 341 303 339 300 337 296 336 293 334 290 332 287 330 284 329 280 327 276 326 275 326 273 326 271 326 271 327 271 329 271 330 272 331 272 332 273 333 273 334 273 335 275 336 276 336 277 337 278 339 281 343 284 347 288 350 293 354 299 358 304 362 309 366 314 370 320 374 322 376 323 377 325 379 327 381 329 382 331 384 332 385 333 385 334 386 334 389 337 390 339 391 339 392 340 392 341 393 343 396 344 399 347 401 350 403 351 407 352 410 354 413 356 417 358 420 356 424 352 424 349 426 349 425 349 424 349 423 347 422 346 421 345 420 344 419 343 418 342 417 342 415 341 414 339 413 337 411 335 409 333 407 332 405 330 404 329 403 327 401 325 400 324 399 321 397 319 395 316 392 314 390 311 388 309 387 306 385 304 383 301 381 298 379 296 378 293 376 292 375 291 374 289 373 284 369 278 365 273 361 272 359 271 358 269 356 267 353 263 350 261 346 257 340 254 333 256 326 256 325 256 324 257 324 257 323 258 323 258 323 258 319 262 317 264 314 265 313 267 313 268 312 272 311 276 311 280 312 282 313 283 312 285 313 287 314 290 313 292 315 293 316 295 317 297 317 298 317 300 318 300 319 302 322 304 322 307 323 310 325 312 326 315 328 317 330 318 332 321 332 324 332 325 334 327 335 329 337 330 339 333 340 334 341 336 341 337 343 338 344 339 344 340 346 342 348 343 350 346 351 347 351 348 352 348 353 352 358 357 361 362 364 363 365 364 365 365 365 366 364 368 364 370 363 373 361 375 360 379 360 381 360 383 360 384 359 386 359 386 358 386 356 382 352 378 348 375 344 373 343 372 343 371 343 367 344 365 342 366 339 367 336 366 334 363 332 359 329 355 325 351 322 350 321 349 321 348 321 341 318 334 314 327 311 324 310 320 309 317 307 315 306 312 305 310 304 307 304 305 303 304 300 303 298 304 297 306 295 306 295 307 294 307 294 307 292 309 292 310 290 312 290 313 288 314 287 316 285 317 284 319 283 322 282 325 280 328 280 332 279 336 278 339 278 343 277 348 276 352 275 356 275 360 276 364 276 365 276 366 276 367 276 372 276 376 277 381 277 384 278 387 279 390 279 392 280 393 280 394 280 394 279 395 280 395 280 400 281 405 281 410 283 414 284 417 285 420 287 427 290 432 295 437 300 440 304 444 307 447 311 448 311 448 312 448 312 452 318 456 324 457 331 457 331 457 332 457 333 456 335 457 336 459 337 460 337 461 337 462 337 463 337 464 337 465 337 466 337 466 338 467 338 470 337 473 338 476 340 477 341 479 342 482 342 484 341 487 341 490 341 490 341 491 340 491 340 492 340 494 340 495 340 500 338 506 339 511 338 512 338 513 339 514 339 516 339 517 340 519 340 526 342 533 344 539 348 540 349 541 350 543 351 544 350 546 349 548 348 549 348 550 348 550 347 550 346 551 346 552 346 553 346 554 346 554 345 559 343 564 342 568 338 572 335 576 334 579 331 584 329 588 327 592 325 594 324 596 323 597 321 597 321 597 320 597 320 595 314 593 309 592 303 591 301 591 299 593 298 595 296 596 295 598 294 600 293 601 293 603 293 604 294 604 295 605 296 605 299 606 303 607 306 607 309 608 312 608 316 610 316 611 314 612 313 615 312 617 310 619 309 625 305 632 301 637 296 640 294 642 292 644 291 645 290 646 289 645 288 642 285 640 282 636 280 634 280 633 279 632 278 629 276 625 275 622 276 621 276 620 276 620 276 615 277 611 278 607 278 604 278 601 278 599 279 597 279 596 280 594 280 590 282 586 281 582 283 582 283 581 283 581 283 580 283 580 284 579 284 576 286 573 288 569 289 563 290 557 292 552 296 550 297 549 298 548 299 544 301 541 302 537 304 536 305 535 306 534 306 529 307 526 309 522 311 516 313 511 317 508 322 506 325 504 327 502 329 500 332 497 335 495 338 494 339 492 339 491 340ZM445 336C443 331 440 327 438 323 436 320 433 317 431 315 429 312 427 310 425 308 422 305 418 302 413 300 408 296 403 295 397 293 395 293 393 293 392 293 387 292 383 292 379 291 376 291 373 290 371 290 367 290 363 290 359 290 354 289 349 290 344 291 341 291 338 292 336 292 333 293 330 294 327 294 328 295 328 296 329 296 331 297 333 298 335 299 337 300 339 301 341 302 342 302 344 303 345 303 349 305 354 307 358 309 360 311 362 312 364 313 365 315 366 314 367 313 368 311 370 309 372 308 376 306 380 307 383 307 384 307 384 307 384 307 385 308 386 309 387 310 389 311 389 314 387 316 385 316 384 317 383 318 382 319 380 319 379 319 377 320 375 320 373 321 374 324 377 326 379 327 384 326 387 325 391 325 393 324 394 324 396 324 398 324 401 324 403 324 408 324 409 325 409 329 407 332 403 333 400 335 396 337 392 336 389 339 390 341 392 343 393 345 395 347 396 347 398 346 401 344 403 342 406 341 408 339 410 339 412 338 416 336 419 335 423 336 425 336 428 336 431 336 434 336 436 336 439 336 441 336 443 336 445 336ZM577 303C580 306 583 309 585 313 586 315 588 318 590 320 591 322 590 325 587 325 586 326 585 326 585 327 584 327 583 329 582 328 580 328 578 327 577 326 575 324 574 323 573 322 571 320 569 319 569 317 568 315 567 313 567 311 568 309 569 308 570 307 571 306 572 306 572 305 573 303 575 302 577 303Z" fill="rgba(108,92,141,.03)"/></svg>
