<?xml version="1.0" standalone="no"?>
<!DOCTYPE svg PUBLIC "-//W3C//DTD SVG 20010904//EN"
 "http://www.w3.org/TR/2001/REC-SVG-20010904/DTD/svg10.dtd">
<svg version="1.0" xmlns="http://www.w3.org/2000/svg"
 width="16.000000pt" height="16.000000pt" viewBox="0 0 16.000000 16.000000"
 preserveAspectRatio="xMidYMid meet">
<metadata>
Created by potrace 1.11, written by Peter Selinger 2001-2013
</metadata>
<g transform="translate(0.000000,16.000000) scale(0.002286,-0.002286)"
fill="#000000" stroke="none">
<path d="M3358 6995 c-1 -1 -45 -6 -97 -9 -123 -8 -283 -31 -426 -62 -38 -8
-81 -17 -95 -20 -43 -8 -242 -65 -300 -86 -151 -54 -167 -60 -290 -114 -255
-111 -509 -262 -734 -436 -483 -373 -874 -887 -1101 -1448 -42 -103 -99 -263
-111 -308 -2 -9 -15 -57 -29 -107 -74 -266 -117 -590 -118 -895 -1 -99 10
-340 17 -375 2 -11 7 -47 10 -80 6 -51 20 -138 41 -260 13 -69 79 -308 115
-416 70 -207 174 -437 276 -612 19 -32 34 -60 34 -62 0 -2 42 -66 93 -142 145
-216 254 -349 432 -527 148 -148 220 -211 425 -369 35 -27 221 -148 295 -192
110 -65 361 -186 475 -230 112 -43 229 -85 250 -90 8 -2 42 -11 75 -20 234
-66 444 -104 680 -123 173 -13 557 -7 695 12 14 2 50 7 80 11 30 3 73 10 95
15 22 5 55 11 73 14 17 4 46 8 64 12 57 9 252 62 359 97 718 235 1352 706
1782 1325 96 138 90 128 165 257 118 203 237 472 302 685 17 58 36 118 41 134
5 16 9 34 9 40 0 8 -259 11 -934 11 -514 0 -936 -2 -938 -5 -2 -3 -30 -45 -61
-93 -182 -278 -466 -512 -782 -643 -98 -40 -258 -89 -326 -99 -24 -4 -46 -8
-49 -10 -29 -18 -378 -26 -498 -12 -305 37 -590 150 -842 336 -90 66 -278 252
-343 338 -197 260 -317 563 -353 893 -6 56 -6 304 0 345 3 17 10 64 16 105 48
333 219 674 469 935 98 102 301 265 330 265 6 0 11 5 11 10 0 6 6 10 14 10 7
0 24 8 37 18 48 37 313 149 394 167 11 2 47 11 80 19 61 15 94 20 187 33 72
10 339 10 416 0 513 -64 972 -351 1256 -787 l49 -75 933 0 c690 0 934 3 934
11 0 12 -14 60 -57 199 -42 132 -141 371 -211 504 -36 70 -70 136 -76 148 -6
13 -14 23 -18 23 -5 0 -8 5 -8 11 0 10 -17 37 -99 164 -30 46 -22 34 -108 150
-143 192 -357 425 -508 552 -28 23 -67 57 -89 75 -216 184 -583 403 -871 521
-197 81 -483 169 -625 194 -14 2 -61 10 -105 18 -98 18 -125 22 -195 30 -30 4
-68 8 -85 11 -36 5 -522 14 -527 9z"/>
</g>
</svg>
